<svg width="62" height="62" viewBox="0 0 62 62" fill="none" xmlns="http://www.w3.org/2000/svg">
<path d="M37.4136 25.6552L50.2412 25.6552L54.517 38.4827L54.517 48.1034H49.0653" stroke="#F2C66D" stroke-width="2.56552" stroke-miterlimit="10"/>
<path d="M38.5896 48.1034H24.5615" stroke="#F2C66D" stroke-width="2.56552" stroke-miterlimit="10"/>
<path d="M28.8623 18.1724L37.414 18.1724L37.414 39.5517" stroke="#F2C66D" stroke-width="2.56552" stroke-miterlimit="10"/>
<path d="M12.8277 48.1034H7.48291L7.48291 31" stroke="#F2C66D" stroke-width="2.56552" stroke-miterlimit="10"/>
<path d="M18.7069 54.5173C21.954 54.5173 24.5863 51.885 24.5863 48.638C24.5863 45.3909 21.954 42.7587 18.7069 42.7587C15.4599 42.7587 12.8276 45.3909 12.8276 48.638C12.8276 51.885 15.4599 54.5173 18.7069 54.5173Z" stroke="#F2C66D" stroke-width="2.56552" stroke-miterlimit="10" stroke-linecap="square"/>
<path d="M43.8277 54.5173C46.7796 54.5173 49.1726 52.1243 49.1726 49.1725C49.1726 46.2206 46.7796 43.8276 43.8277 43.8276C40.8759 43.8276 38.4829 46.2206 38.4829 49.1725C38.4829 52.1243 40.8759 54.5173 43.8277 54.5173Z" stroke="#F2C66D" stroke-width="2.56552" stroke-miterlimit="10" stroke-linecap="square"/>
<path d="M18.1726 28.8621C24.0763 28.8621 28.8622 24.0762 28.8622 18.1724C28.8622 12.2687 24.0763 7.48279 18.1726 7.48279C12.2688 7.48279 7.48291 12.2687 7.48291 18.1724C7.48291 24.0762 12.2688 28.8621 18.1726 28.8621Z" stroke="#F2C66D" stroke-width="2.56552" stroke-miterlimit="10" stroke-linecap="square"/>
<path d="M18.1724 13.8966V18.1725H22.4482" stroke="#F2C66D" stroke-width="2.56552" stroke-miterlimit="10" stroke-linecap="square"/>
</svg>
