<svg width="62" height="62" viewBox="0 0 62 62" fill="none" xmlns="http://www.w3.org/2000/svg">
<path d="M48.9588 42.3311C50.6818 40.7524 52.0637 38.838 53.0196 36.7056C53.9755 34.5731 54.4852 32.2677 54.5174 29.9311C54.5174 19.3483 44.0415 10.6897 31.0002 10.6897C17.9588 10.6897 7.48291 19.3483 7.48291 29.9311C7.48291 40.5138 17.9588 49.1725 31.0002 49.1725C33.2285 49.1406 35.4484 48.89 37.6277 48.4242L50.2415 53.4483L48.9588 42.3311Z" stroke="#F2C66D" stroke-width="2.56552" stroke-miterlimit="10" stroke-linecap="square"/>
<path d="M39.0834 23.9908C38.5346 23.4394 37.8698 23.0172 37.1374 22.7548C36.405 22.4925 35.6234 22.3966 34.8493 22.474C34.0752 22.5515 33.3281 22.8005 32.6622 23.2028C31.9964 23.6051 31.4285 24.1507 30.9999 24.8C30.5931 24.1884 30.0627 23.6688 29.4428 23.2749C28.8229 22.8809 28.1273 22.6213 27.4009 22.5127C26.6744 22.4042 25.9333 22.4491 25.2253 22.6446C24.5173 22.8401 23.8582 23.1819 23.2904 23.6479C22.7226 24.1138 22.2589 24.6936 21.929 25.3499C21.5991 26.0061 21.4104 26.7242 21.3752 27.4579C21.3399 28.1915 21.4589 28.9244 21.7243 29.6093C21.9898 30.2941 22.3959 30.9157 22.9164 31.434L30.9999 39.5517L39.0845 31.4382C40.0686 30.4488 40.621 29.1099 40.6208 27.7143C40.6206 26.3187 40.0678 24.9799 39.0834 23.9908Z" stroke="#F2C66D" stroke-width="2.56552" stroke-miterlimit="10" stroke-linecap="square"/>
</svg>
