<svg width="46" height="32" viewBox="0 0 46 32" fill="none" xmlns="http://www.w3.org/2000/svg">
<g clip-path="url(#clip0_1_1001)">
<path d="M42.8899 0.400024H3.10988C1.60215 0.400024 0.379883 1.62229 0.379883 3.13002V28.87C0.379883 30.3778 1.60215 31.6 3.10988 31.6H42.8899C44.3976 31.6 45.6199 30.3778 45.6199 28.87V3.13002C45.6199 1.62229 44.3976 0.400024 42.8899 0.400024Z" fill="white" stroke="white" stroke-width="0.78"/>
<path d="M20.4238 21.9497H17.3599L19.2762 10.7561H22.3399L20.4238 21.9497Z" fill="#15195A"/>
<path d="M31.528 11.0254C30.9236 10.7989 29.9651 10.5488 28.7799 10.5488C25.7542 10.5488 23.6235 12.0729 23.6105 14.252C23.5853 15.8598 25.136 16.7527 26.2957 17.2888C27.4811 17.8366 27.8841 18.1942 27.8841 18.6824C27.872 19.4322 26.9262 19.7779 26.044 19.7779C24.8208 19.7779 24.1654 19.5997 23.1693 19.1825L22.7659 19.0037L22.3372 21.5164C23.0558 21.8257 24.3797 22.1001 25.7542 22.1121C28.969 22.1121 31.062 20.6115 31.0868 18.2894C31.0991 17.0152 30.2803 16.0388 28.515 15.2409C27.4434 14.7288 26.7871 14.3835 26.7871 13.8594C26.7997 13.383 27.3422 12.8951 28.5519 12.8951C29.5479 12.8711 30.2797 13.0973 30.8342 13.3237L31.1113 13.4425L31.528 11.0254Z" fill="#15195A"/>
<path fill-rule="evenodd" clip-rule="evenodd" d="M37.0023 10.7561H39.3722L41.844 21.9496H39.0071C39.0071 21.9496 38.7295 20.6634 38.6415 20.2705H34.7077C34.594 20.568 34.0647 21.9496 34.0647 21.9496H30.8499L35.4009 11.6848C35.7162 10.9584 36.2715 10.7561 37.0023 10.7561ZM36.8135 14.8524C36.8135 14.8524 35.8426 17.3412 35.5903 17.9842H38.1369C38.011 17.4246 37.4308 14.7452 37.4308 14.7452L37.2166 13.7807C37.1264 14.0291 36.9961 14.3705 36.9081 14.6009C36.8485 14.757 36.8084 14.862 36.8135 14.8524Z" fill="#15195A"/>
<path fill-rule="evenodd" clip-rule="evenodd" d="M4.08851 10.7461H9.018C9.68615 10.7697 10.2283 10.9721 10.4048 11.6871L11.476 16.8295L11.4765 16.831L11.8043 18.3791L14.8049 10.7461H18.0447L13.2288 21.9278H9.98879L7.25799 12.2017C6.31576 11.6812 5.2404 11.2628 4.03809 10.9723L4.08851 10.7461Z" fill="#15195A"/>
</g>
<defs>
<clipPath id="clip0_1_1001">
<rect width="46" height="32" fill="white"/>
</clipPath>
</defs>
</svg>
