<svg width="62" height="62" viewBox="0 0 62 62" fill="none" xmlns="http://www.w3.org/2000/svg">
<path d="M48.1034 41.6897L31 41.6897L31 52.3794H48.1034V41.6897Z" stroke="#F2C66D" stroke-width="2.56552" stroke-miterlimit="10" stroke-linecap="square"/>
<path d="M35.2759 41.6897V35.2759C35.2759 32.9241 37.2 31 39.5517 31C41.9035 31 43.8276 32.9241 43.8276 35.2759V41.6897" stroke="#F2C66D" stroke-width="2.56552" stroke-miterlimit="10" stroke-linecap="square"/>
<path d="M24.5864 45.9656L11.7588 45.9656C9.39743 45.9656 7.48291 44.051 7.48291 41.6897L7.48291 16.0345C7.48291 13.6732 9.39743 11.7587 11.7588 11.7587L50.2415 11.7587C52.6029 11.7587 54.5174 13.6732 54.5174 16.0345L54.5174 41.6897" stroke="#F2C66D" stroke-width="2.56552" stroke-miterlimit="10" stroke-linecap="square"/>
<path d="M18.1724 11.7587L18.1724 45.9656" stroke="#F2C66D" stroke-width="2.56552" stroke-miterlimit="10" stroke-linecap="square"/>
<path d="M45.9653 11.7587L45.9653 26.7242" stroke="#F2C66D" stroke-width="2.56552" stroke-miterlimit="10" stroke-linecap="square"/>
</svg>
